# xmcd
#
# Track frame offsets:
#	150
#	10883
#	26161
#	41685
#	48379
#	60336
#	76409
#	95810
#
# Disc length: 1452 seconds
#
# Revision: 0
# Processed by: cddbd v1.5.2PL0 Copyright (c) Steve Scherf et al.
# Submitted via: EasyCDDAExtractor 9.0.0.1
#
DISCID=6005aa08
DTITLE=New Road Duo
DYEAR=2010
DGENRE=Country
TTITLE0=As Dead As Yesterday
TTITLE1=Proud Mary
TTITLE2=Midnight Rider
TTITLE3=EMD
TTITLE4=Nine Pound Hammer
TTITLE5=Hoochie Coochie Man
TTITLE6=Smoke On The Water
TTITLE7=Tytu³ utworu 8
EXTD=
EXTT0=
EXTT1=
EXTT2=
EXTT3=
EXTT4=
EXTT5=
EXTT6=
EXTT7=
PLAYORDER=
